# xmcd CD database file
#
# Track frame offsets:
#	183
#	9870
#	24320
#	35928
#	48068
#	61265
#	74590
#	86048
#	99153
#	109745
#
# Disc length: 1587 seconds
#
# Revision: 0
# Processed by: cddbd v1.4PL0 Copyright (c) Steve Scherf et al.
# Submitted via: CDex 1.50Beta3
#
DISCID=7606310a
DTITLE=Framkie Laine - I Believe
DYEAR=1990
DGENRE=Country
TTITLE0=I Believe
TTITLE1=There Must Be A Reson
TTITLE2=Strange Lady in Town
TTITLE3=High Noon
TTITLE4=Cool Water
TTITLE5=Granda
TTITLE6=Love Is A Golden Ring
TTITLE7=Rain, Rain, Rain
TTITLE8=Sixteen Tons
TTITLE9=Rawhide
EXTD=YEAR: 1990
EXTT0=
EXTT1=
EXTT2=
EXTT3=
EXTT4=
EXTT5=
EXTT6=
EXTT7=
EXTT8=
EXTT9=
PLAYORDER=
